<svg width="586" height="593" viewBox="0 0 586 593" fill="none" xmlns="http://www.w3.org/2000/svg">
<mask id="mask0_17_674" style="mask-type:luminance" maskUnits="userSpaceOnUse" x="0" y="0" width="586" height="593">
<path d="M586 0H0V592.355H586V0Z" fill="white"/>
</mask>
<g mask="url(#mask0_17_674)">
<path d="M531.272 415.603H54.5713V142.24H531.272V415.603Z" fill="#2B399E"/>
<path d="M522.204 135.279H296.979H289.309H64.0852C56.0594 135.279 49.1507 141.062 49.1507 149.174V429.757H536.734V149.174C536.734 141.062 530.228 135.279 522.204 135.279ZM414.812 409.294H345.555H69.3932V154.851H273.152H342.409H368.426H516.492V409.294H440.829H414.812Z" fill="#221F1F"/>
<path d="M361.365 409.728H224.585V386.267C224.585 385.666 225.066 385.18 225.66 385.18H360.29C360.884 385.18 361.365 385.666 361.365 386.267V409.728Z" fill="#9BD4E6"/>
<path d="M247.138 405.333H230.048V388.058H247.138V405.333Z" fill="#FCCC8F"/>
<path d="M268.457 405.333H251.368V388.058H268.457V405.333Z" fill="#2B399E"/>
<path d="M289.777 405.333H272.688V388.058H289.777V405.333Z" fill="#412A79"/>
<path d="M310.997 405.333H293.907V388.058H310.997V405.333Z" fill="#FCCC8F"/>
<path d="M332.317 405.333H315.228V388.058H332.317V405.333Z" fill="#2B399E"/>
<path d="M353.637 405.333H336.548V388.058H353.637V405.333Z" fill="#412A79"/>
<path d="M212.91 272.705H96.4702V280.585H212.91V272.705Z" fill="white"/>
<path d="M96.4704 378.778H212.909V279.373H96.4704V378.778Z" fill="#DDDDDD"/>
<path d="M103.099 276.798C103.099 277.969 102.159 278.919 101 278.919C99.8412 278.919 98.9019 277.969 98.9019 276.798C98.9019 275.626 99.8412 274.676 101 274.676C102.159 274.676 103.099 275.626 103.099 276.798Z" fill="#F10909"/>
<path d="M108.962 276.798C108.962 277.969 108.023 278.919 106.864 278.919C105.704 278.919 104.765 277.969 104.765 276.798C104.765 275.626 105.704 274.676 106.864 274.676C108.023 274.676 108.962 275.626 108.962 276.798Z" fill="#25992C"/>
<path d="M114.825 276.798C114.825 277.969 113.886 278.919 112.726 278.919C111.567 278.919 110.628 277.969 110.628 276.798C110.628 275.626 111.567 274.676 112.726 274.676C113.886 274.676 114.825 275.626 114.825 276.798Z" fill="#E4E41C"/>
<path d="M353.93 480.394C343.234 469.377 342.83 445.229 342.83 445.229H294.798H291.166H243.133C243.133 445.229 242.73 469.377 232.034 480.394C221.337 491.41 204.588 501.278 233.648 501.278H291.166H294.798H352.315C381.376 501.278 364.626 491.41 353.93 480.394Z" fill="#999999"/>
<path d="M49.1507 433.928C49.1507 442.041 56.0597 449.578 64.0855 449.578H289.31H296.979H522.204C530.228 449.578 536.734 442.041 536.734 433.928V406.875H49.1507V433.928Z" fill="#B3B3B3"/>
<path d="M293.409 426.775C292.936 424.316 294.013 421.944 295.926 420.646C296.795 420.057 296.772 418.741 295.875 418.196C294.354 417.273 292.516 416.862 290.626 417.161C286.338 417.837 283.404 421.899 284.073 426.233L284.354 432.817C284.294 433.713 284.364 434.636 284.594 435.565C285.666 439.879 289.862 442.77 294.223 442.186C299.108 441.532 302.478 436.95 301.723 432.056C301.65 431.587 301.19 431.296 300.736 431.419C299.843 431.662 298.853 431.7 297.755 431.388C295.581 430.771 293.84 429.015 293.409 426.775Z" fill="white"/>
<path d="M289.896 416.796C293.478 412.671 290.203 409.95 289.036 409.085C288.823 408.927 288.681 408.831 288.662 408.799L288.681 408.831C284.057 414.156 289.896 416.796 289.896 416.796Z" fill="white"/>
<path d="M137.717 149.309V133.496L122.364 124.349L79.1818 98.6234L39.7554 124.349L25.7368 133.496V147.472C25.7368 193.58 46.834 237.095 82.8835 265.343H82.8838L84.2741 264.18C118.124 235.846 137.717 193.734 137.717 149.309Z" fill="#2B399E"/>
<path d="M135.384 151.141V136.094L120.661 127.391L79.2509 102.911L41.4422 127.391L27.9994 136.094V149.394C27.9994 193.267 48.2304 234.675 82.8009 261.554L84.1344 260.447C116.595 233.487 135.384 193.414 135.384 151.141Z" stroke="#CAC9C7" stroke-width="15" stroke-miterlimit="10"/>
<path d="M137.717 149.309V133.496L122.364 124.349L79.1818 98.6234L39.7554 124.349L25.7368 133.496V147.472C25.7368 193.58 46.834 237.095 82.8835 265.343H82.8838L84.2741 264.18C118.124 235.846 137.717 193.734 137.717 149.309Z" stroke="#EFEBF1" stroke-width="15" stroke-miterlimit="10"/>
<path d="M146.646 179.632H275.29" stroke="white" stroke-miterlimit="10"/>
<path d="M146.646 189.647H275.29" stroke="white" stroke-miterlimit="10"/>
<path d="M146.646 199.66H275.29" stroke="white" stroke-miterlimit="10"/>
<path d="M146.646 209.674H275.29" stroke="white" stroke-miterlimit="10"/>
<path d="M146.646 219.688H275.29" stroke="white" stroke-miterlimit="10"/>
<path d="M146.646 229.703H275.29" stroke="white" stroke-miterlimit="10"/>
<path d="M146.646 239.717H275.29" stroke="white" stroke-miterlimit="10"/>
<path d="M146.646 181.409V251.857H275.29" stroke="white" stroke-miterlimit="10"/>
<path d="M372.889 242.664C380.739 251.295 392 256.705 404.513 256.705C416.053 256.705 426.529 252.104 434.247 244.618L403.847 212.615L372.889 242.664Z" fill="#412A79"/>
<path d="M447.465 213.288C447.465 201.274 442.636 190.4 434.835 182.539L403.848 212.615L434.247 244.618C442.393 236.717 447.465 225.602 447.465 213.288Z" fill="#DDDDDD"/>
<g opacity="0.826998">
<path d="M434.835 182.539C427.066 174.711 416.349 169.872 404.513 169.872C392.959 169.872 382.472 174.484 374.752 181.986L403.847 212.616L434.835 182.539Z" fill="#FCCC8F"/>
</g>
<g opacity="0.212259">
<path d="M361.575 212.279H403.528L374.752 181.986C366.846 189.669 361.844 200.382 361.575 212.279Z" fill="#FCCC8F"/>
</g>
<path d="M419.063 292.106V353.234V354.613V377.51H429.045H438.167H480.668V292.106H419.063Z" fill="#EBECB7"/>
<path d="M104.894 293.512H107.531" stroke="#412A7A" stroke-width="13"/>
<path d="M104.894 317.206H107.531" stroke="#412A7A" stroke-width="13"/>
<path d="M104.894 340.901H107.531" stroke="#412A7A" stroke-width="13"/>
<path d="M104.894 364.594H107.531" stroke="#412A7A" stroke-width="13"/>
<path d="M47.2981 174.455C47.2981 174.455 57.4649 193.595 80.263 193.595C102.807 193.595 113.493 174.455 113.493 174.455C113.493 174.455 103.731 152.176 80.263 152.176C61.5241 152.176 47.2981 174.455 47.2981 174.455Z" fill="#FBFBFB"/>
<mask id="mask1_17_674" style="mask-type:alpha" maskUnits="userSpaceOnUse" x="47" y="152" width="67" height="42">
<path d="M47.2981 174.455C47.2981 174.455 57.4649 193.595 80.263 193.595C102.807 193.595 113.493 174.455 113.493 174.455C113.493 174.455 103.731 152.176 80.263 152.176C61.5241 152.176 47.2981 174.455 47.2981 174.455Z" fill="#FBFBFB"/>
</mask>
<g mask="url(#mask1_17_674)">
<path d="M92.0233 190.661C82.7891 190.661 75.2338 183.024 75.2338 173.689C75.2338 164.355 82.7891 156.718 92.0233 156.718C101.257 156.718 108.813 164.355 108.813 173.689C108.813 183.024 101.257 190.661 92.0233 190.661Z" fill="#412A79"/>
</g>
<mask id="mask2_17_674" style="mask-type:alpha" maskUnits="userSpaceOnUse" x="47" y="152" width="67" height="42">
<path d="M47.2981 174.455C47.2981 174.455 57.4649 193.595 80.263 193.595C102.807 193.595 113.493 174.455 113.493 174.455C113.493 174.455 103.731 152.176 80.263 152.176C61.5241 152.176 47.2981 174.455 47.2981 174.455Z" fill="#FBFBFB"/>
</mask>
<g mask="url(#mask2_17_674)">
<path d="M102.161 173.689C102.161 168.03 97.6222 163.441 92.023 163.441C86.4241 163.441 81.8852 168.03 81.8852 173.689C81.8852 179.349 86.4241 183.937 92.023 183.937C97.6222 183.937 102.161 179.349 102.161 173.689Z" fill="black"/>
</g>
<mask id="mask3_17_674" style="mask-type:alpha" maskUnits="userSpaceOnUse" x="47" y="152" width="67" height="42">
<path d="M47.2981 174.455C47.2981 174.455 57.4649 193.595 80.263 193.595C102.807 193.595 113.493 174.455 113.493 174.455C113.493 174.455 103.731 152.176 80.263 152.176C61.5241 152.176 47.2981 174.455 47.2981 174.455Z" fill="#FBFBFB"/>
</mask>
<g mask="url(#mask3_17_674)">
<g opacity="0.3">
<path d="M105.633 167.061C105.633 170.092 103.202 172.549 100.204 172.549C97.2056 172.549 94.7749 170.092 94.7749 167.061C94.7749 164.031 97.2056 161.574 100.204 161.574C103.202 161.574 105.633 164.031 105.633 167.061Z" fill="#FBFBFB"/>
</g>
</g>
<g opacity="0.1">
<path d="M274.424 156.378L346.827 406.485H416.084L343.681 156.378H274.424Z" fill="white"/>
<path d="M517.764 156.378H369.698L442.101 406.485H517.764V156.378Z" fill="white"/>
</g>
<path d="M395.137 313.15L365.03 309.111L373.286 276.503L403.393 280.541L395.137 313.15Z" fill="#9B9B9B"/>
<g opacity="0.5">
<path d="M475.562 215.098C464.861 257.364 422.37 287.091 380.657 281.495C338.943 275.9 313.803 237.101 324.504 194.836C335.206 152.57 377.696 122.843 419.41 128.438C461.123 134.034 486.263 172.832 475.562 215.098Z" fill="#D2D2D2"/>
</g>
<path d="M392.44 327.616L362.334 323.577L370.59 290.969L400.697 295.007L392.44 327.616Z" fill="#F3F4F1"/>
<path d="M351.913 441.153L351.913 441.153C341 439.689 331.98 438.852 335.376 425.437L362.258 319.268C365.655 305.853 374.492 307.411 385.406 308.875C396.319 310.339 405.34 311.176 401.943 324.591L375.061 430.76C371.664 444.175 362.827 442.617 351.913 441.153Z" fill="#60605F"/>
<path d="M342 428.318L339.143 427.934C338.788 427.887 338.573 427.554 338.664 427.194L366.468 317.383C366.558 317.023 366.923 316.768 367.278 316.816L370.136 317.199C370.491 317.247 370.707 317.58 370.616 317.94L342.811 427.75C342.72 428.11 342.355 428.366 342 428.318Z" fill="#6A6D6B"/>
<g opacity="0.05">
<path d="M472.227 228.153L323.242 211.119C323.076 215.147 323.234 219.104 323.697 222.962L466.406 239.278C468.599 235.728 470.549 232.013 472.227 228.153Z" fill="#D2D2D2"/>
</g>
<g opacity="0.05">
<path d="M330.636 242.603C339.679 263.128 358.61 278.17 383.391 281.494C409.2 284.956 435.302 274.892 453.993 256.707L330.636 242.603Z" fill="#D2D2D2"/>
</g>
<g opacity="0.05">
<path d="M474.922 215.098C477.94 203.179 478.107 191.537 475.856 180.836L337.909 165.064C331.491 173.897 326.621 183.949 323.864 194.835C323.408 196.64 323.021 198.436 322.694 200.226L474.256 217.555C474.488 216.74 474.713 215.922 474.922 215.098Z" fill="#D2D2D2"/>
</g>
<g opacity="0.05">
<path d="M416.828 128.438C389.7 124.8 362.248 136.103 343.42 156.075L470.942 170.655C462.539 148.44 442.928 131.939 416.828 128.438Z" fill="#D2D2D2"/>
</g>
<g opacity="0.08">
<path d="M475.415 217.554L323.853 200.225C323.18 203.899 322.777 207.537 322.629 211.119L471.614 228.153C473.103 224.728 474.377 221.19 475.415 217.554Z" fill="white"/>
</g>
<g opacity="0.08">
<path d="M467.111 239.278L324.403 222.961C325.235 229.885 327.046 236.488 329.74 242.603L453.097 256.707C458.432 251.517 463.164 245.667 467.111 239.278Z" fill="white"/>
</g>
<g opacity="0.08">
<path d="M471.463 170.655L343.941 156.075C341.275 158.903 338.783 161.905 336.487 165.064L474.435 180.836C473.698 177.334 472.702 173.932 471.463 170.655Z" fill="white"/>
</g>
<path d="M475.562 215.098C464.861 257.364 422.37 287.091 380.656 281.495C338.943 275.9 313.803 237.101 324.504 194.836C335.206 152.57 377.696 122.844 419.409 128.439C461.123 134.034 486.263 172.833 475.562 215.098Z" stroke="#F3F4F1" stroke-width="20" stroke-miterlimit="10"/>
</g>
</svg>
