<svg width="645" height="483" viewBox="0 0 645 483" fill="none" xmlns="http://www.w3.org/2000/svg">
<g clip-path="url(#clip0_11_494)">
<mask id="mask0_11_494" style="mask-type:luminance" maskUnits="userSpaceOnUse" x="0" y="0" width="645" height="483">
<path d="M645 0H0V483H645V0Z" fill="white"/>
</mask>
<g mask="url(#mask0_11_494)">
<mask id="mask1_11_494" style="mask-type:luminance" maskUnits="userSpaceOnUse" x="0" y="0" width="645" height="483">
<path d="M0 0H645V483H0V0Z" fill="white"/>
</mask>
<g mask="url(#mask1_11_494)">
<g filter="url(#filter0_f_11_494)">
<path d="M538.729 147.195L392.46 449.312C385.991 462.673 369.15 469.335 354.878 464.177L119.722 379.2C105.45 374.043 99.114 359.007 105.583 345.645L251.852 43.5286C258.321 30.167 275.161 23.5058 289.434 28.6633L524.59 113.64C538.862 118.797 545.198 133.834 538.729 147.195Z" fill="#B4BCFF" fill-opacity="0.1"/>
<path d="M538.729 147.195L392.46 449.312C385.991 462.673 369.15 469.335 354.878 464.177L119.722 379.2C105.45 374.043 99.114 359.007 105.583 345.645L251.852 43.5286C258.321 30.167 275.161 23.5058 289.434 28.6633L524.59 113.64C538.862 118.797 545.198 133.834 538.729 147.195Z" stroke="url(#paint0_linear_11_494)"/>
</g>
<g opacity="0.3">
<path d="M504.665 160.842L432.528 309.652C426.012 323.094 409.049 329.795 394.674 324.606L205.858 256.449C191.482 251.26 185.101 236.132 191.618 222.69L263.755 73.8804C270.271 60.4381 287.233 53.7371 301.609 58.9262L490.424 127.083C504.8 132.272 511.181 147.4 504.665 160.842Z" fill="url(#paint1_linear_11_494)"/>
</g>
</g>
<mask id="mask2_11_494" style="mask-type:luminance" maskUnits="userSpaceOnUse" x="0" y="0" width="645" height="483">
<path d="M0 0H645V483H0V0Z" fill="white"/>
</mask>
<g mask="url(#mask2_11_494)">
<g filter="url(#filter1_f_11_494)">
<path d="M481.628 88.0123V405.755C481.628 419.972 468.687 431.515 452.748 431.515H190.129C174.19 431.515 161.249 419.972 161.249 405.755V88.0123C161.249 73.7953 174.19 62.2523 190.129 62.2523H452.748C468.687 62.2523 481.628 73.7953 481.628 88.0123Z" fill="#B4BCFF" fill-opacity="0.1"/>
<path d="M481.628 88.0123V405.755C481.628 419.972 468.687 431.515 452.748 431.515H190.129C174.19 431.515 161.249 419.972 161.249 405.755V88.0123C161.249 73.7953 174.19 62.2523 190.129 62.2523H452.748C468.687 62.2523 481.628 73.7953 481.628 88.0123Z" stroke="url(#paint2_linear_11_494)"/>
</g>
<path d="M423.378 350.804C423.378 347.22 420.115 344.309 416.096 344.309H195.576C191.557 344.309 188.294 347.22 188.294 350.804C188.294 354.388 191.557 357.299 195.576 357.299H416.096C420.115 357.299 423.378 354.388 423.378 350.804Z" fill="white"/>
<path d="M346.405 376.783C346.405 373.198 343.142 370.288 339.123 370.288H195.577C191.558 370.288 188.295 373.198 188.295 376.783C188.295 380.367 191.558 383.278 195.577 383.278H339.123C343.142 383.278 346.405 380.367 346.405 376.783Z" fill="white"/>
<g filter="url(#filter2_f_11_494)">
<path d="M455.411 110.682V268.067C455.411 282.284 442.47 293.827 426.53 293.827H217.175C201.236 293.827 188.294 282.284 188.294 268.067V110.682C188.294 96.4652 201.236 84.9221 217.175 84.9221H426.53C442.47 84.9221 455.411 96.4652 455.411 110.682Z" fill="url(#paint3_linear_11_494)"/>
</g>
<mask id="mask3_11_494" style="mask-type:luminance" maskUnits="userSpaceOnUse" x="203" y="102" width="242" height="192">
<path d="M203.368 102.669H444.039V293.722H203.368V102.669Z" fill="white"/>
</mask>
<g mask="url(#mask3_11_494)">
<mask id="mask4_11_494" style="mask-type:luminance" maskUnits="userSpaceOnUse" x="234" y="93" width="208" height="203">
<path d="M253.536 93.1886L441.776 103.419L422.992 295.767L234.752 285.537L253.536 93.1886Z" fill="white"/>
</mask>
<g mask="url(#mask4_11_494)">
<path d="M406 229.875C423.852 235.35 432.827 253.7 426.013 270.789C422.066 280.686 415.009 289.076 405.794 294.999L382.238 293.793C386.676 293.212 391.053 291.94 395.243 289.965C405.057 285.335 412.585 277.49 416.428 267.874C421.229 255.834 414.912 242.92 402.35 239.063C395.096 236.841 386.961 240.683 384.197 247.61C382.762 251.223 384.647 255.124 388.438 256.277C389.97 256.759 391.706 255.939 392.287 254.47C392.315 254.387 392.27 254.319 392.201 254.298C389.565 253.49 388.235 250.779 389.244 248.238C390.25 245.715 393.213 244.319 395.867 245.128C401.227 246.765 403.907 252.27 401.868 257.401C400.611 260.55 398.135 263.135 394.908 264.653C391.681 266.171 388.1 266.442 384.792 265.431C380.397 264.079 376.918 261.173 374.997 257.255C373.079 253.32 372.938 248.852 374.62 244.645C379.399 232.654 393.474 226.036 406 229.875Z" fill="#5B97FF"/>
<path d="M388.416 236.324C390.309 235.045 393.553 233.699 393.553 233.699C384.093 234.816 370.292 246.118 376.469 261.099C375.49 260.014 374.653 258.817 374.011 257.493C372.066 253.525 371.928 249.02 373.645 244.777C378.523 232.683 392.847 226.006 405.581 229.876C422.661 235.07 431.732 251.809 426.9 268.132C427.045 257.698 424.107 249.86 424.107 249.86L423.834 252.172C421.903 243.942 415.767 240.272 415.767 240.272L416.989 242.981C404.157 231.484 388.416 236.324 388.416 236.324Z" fill="#7CACFF"/>
<path d="M391.58 254.179C391.58 254.179 394.337 254.854 396.92 253.688C396.92 253.688 391.645 260.492 385.205 254.874C385.91 255.463 386.742 255.92 387.703 256.211C389.284 256.705 391.074 255.864 391.672 254.356C391.7 254.27 391.651 254.2 391.58 254.179Z" fill="#3E7EEB"/>
<path d="M382.239 293.778C386.677 293.197 391.054 291.925 395.244 289.951C405.058 285.32 412.586 277.475 416.429 267.859C421.23 255.819 414.913 242.905 402.351 239.048C395.097 236.826 386.962 240.668 384.198 247.595C382.763 251.208 384.648 255.109 388.439 256.262C389.971 256.744 391.707 255.924 392.288 254.456C392.316 254.372 392.271 254.304 392.202 254.283C389.566 253.475 388.236 250.764 389.245 248.223C390.251 245.7 393.214 244.304 395.869 245.113C401.228 246.75 403.908 252.255 401.869 257.386C400.612 260.535 398.136 263.12 394.909 264.638C391.682 266.156 388.101 266.427 384.793 265.416C380.398 264.064 376.919 261.158 374.999 257.24C373.081 253.305 372.939 248.837 374.621 244.63C379.4 232.639 393.475 226.021 406.002 229.86C423.854 235.335 432.828 253.685 426.014 270.774C422.067 280.671 415.01 289.061 405.797 294.969" stroke="#1C1C35"/>
</g>
<mask id="mask5_11_494" style="mask-type:luminance" maskUnits="userSpaceOnUse" x="227" y="102" width="193" height="192">
<path d="M227.435 102.669H419.972V293.722H227.435V102.669Z" fill="white"/>
</mask>
<g mask="url(#mask5_11_494)">
<path d="M358.343 294.269L335.641 246.957L332.24 248.764V294.269H358.343Z" fill="#3E7EEB"/>
<path d="M358.343 294.269L335.641 246.957L332.24 248.764V294.269" stroke="#1C1C35"/>
<path d="M344.317 293.87H249.617C251.885 268.913 261.119 225.598 297.72 225.598C342.495 225.598 334.916 256.185 344.317 293.87Z" fill="url(#paint4_linear_11_494)"/>
<path d="M288.635 235.406C288.245 240.343 324.772 284.79 324.772 284.79L330.271 238.754C321.02 225.862 289.025 230.468 288.635 235.406Z" fill="#5B97FF"/>
<path d="M288.635 235.406C288.245 240.343 324.772 284.79 324.772 284.79L330.271 238.754C321.02 225.862 289.025 230.468 288.635 235.406Z" stroke="#1C1C35"/>
<path d="M329.323 244.289L337.087 270.158L331.181 266.064L324.77 284.79L301.268 266.064L296.178 270.622L288.635 235.408" stroke="#1C1C35"/>
<path d="M271.374 253.751L275.35 293.872H258.517L265.576 255.277L271.374 253.751Z" fill="#D04C2F"/>
<path d="M249.617 293.87C251.885 268.913 261.102 225.598 297.72 225.598C342.495 225.598 334.916 256.185 344.317 293.87" stroke="#1C1C35"/>
<path d="M334.319 249.825C323.376 263.712 296.344 262.402 291.55 232.905C291.55 232.905 345.263 235.938 334.319 249.825Z" fill="#1C1C35"/>
<path d="M266.691 293.922L267.509 259.734L283.598 259.004L289.116 293.922H266.691Z" fill="#5B97FF"/>
<path d="M266.691 292.728L267.509 258.54L283.598 257.81L289.116 292.728" stroke="#1C1C35"/>
<path d="M275.815 265.268C282.751 265.268 288.373 260.253 288.373 254.067C288.373 247.88 282.751 242.865 275.815 242.865C268.878 242.865 263.256 247.88 263.256 254.067C263.256 260.253 268.878 265.268 275.815 265.268Z" fill="#5B97FF"/>
<path d="M264.053 252.972C263.754 255.325 264.332 257.776 265.781 259.798C266.486 260.809 267.398 261.704 268.383 262.484C269.386 263.295 270.52 263.991 271.745 264.654C270.315 264.521 268.922 263.991 267.713 263.246C266.505 262.516 265.485 261.505 264.667 260.412C263.013 258.208 262.289 255.473 262.549 252.822C262.847 250.17 264.166 247.601 266.265 245.68C268.383 243.773 271.206 242.483 274.216 242.168C275.499 242.035 276.816 242.067 278.098 242.266C275.795 242.316 271.988 242.93 268.513 245.879C268.513 245.896 268.496 245.911 268.476 245.929C268.123 246.178 267.769 246.444 267.454 246.725C265.596 248.399 264.368 250.619 264.053 252.972Z" fill="#1C1C35"/>
<path d="M284.472 244.92C286.293 246.278 287.723 248.067 288.467 250.089C288.95 251.349 289.208 252.693 289.208 254.084C289.208 255.425 288.948 256.767 288.447 258.027C287.947 259.287 287.203 260.479 286.255 261.507C285.79 262.02 285.232 262.486 284.601 262.851C283.971 263.216 283.266 263.48 282.503 263.578C283.338 262.419 284.209 261.573 285.027 260.629C285.846 259.702 286.476 258.639 286.905 257.529C287.333 256.419 287.518 255.243 287.518 254.067C287.518 253.171 287.369 252.293 287.109 251.448C287.109 251.448 286.719 247.539 284.472 244.92Z" fill="#1C1C35"/>
<path d="M276.427 250.731C279.987 249.973 282.39 247.763 281.796 245.794C281.203 243.825 277.838 242.845 274.278 243.603C270.718 244.362 268.315 246.571 268.909 248.54C269.502 250.509 272.867 251.49 276.427 250.731Z" fill="#7CACFF"/>
</g>
<mask id="mask6_11_494" style="mask-type:luminance" maskUnits="userSpaceOnUse" x="227" y="102" width="193" height="192">
<path d="M227.435 102.669H419.972V293.722H227.435V102.669Z" fill="white"/>
</mask>
<g mask="url(#mask6_11_494)">
<mask id="mask7_11_494" style="mask-type:luminance" maskUnits="userSpaceOnUse" x="227" y="102" width="193" height="192">
<path d="M227.435 102.669H419.972V293.722H227.435V102.669Z" fill="white"/>
</mask>
<g mask="url(#mask7_11_494)">
<path d="M350.873 197.161C337.905 191.195 334.358 181.533 342.086 168.193C349.814 154.854 363.303 147.379 376.29 153.362C389.241 159.345 393.474 175.003 385.746 188.327C378.018 201.651 363.84 203.143 350.873 197.161Z" fill="#F7C9A9"/>
<path d="M348.774 183.654L365.72 184.929C357.248 190.15 364.252 197.21 368.153 200.342C362.598 201.005 356.596 199.827 350.856 197.176C347.643 195.684 345.003 193.977 342.979 192.039L348.774 183.654Z" fill="#D1805D"/>
<path d="M376.271 153.377C367.484 149.318 358.454 151.456 351.133 157.404C378.259 147.545 386.637 165.89 389.238 178.699C390.986 168.176 386.174 157.952 376.271 153.377Z" fill="#FFE3C2"/>
<path d="M350.873 197.161C337.905 191.195 334.358 181.533 342.086 168.193C349.814 154.854 363.303 147.379 376.29 153.362C389.241 159.345 393.474 175.003 385.746 188.327C378.018 201.651 363.84 203.143 350.873 197.161Z" stroke="#1C1C35"/>
<path d="M361.885 190.394C370.77 190.342 377.912 183.86 377.836 175.92C377.759 167.98 370.493 161.585 361.608 161.637C352.723 161.69 345.581 168.172 345.657 176.112C345.733 184.052 353 190.447 361.885 190.394Z" fill="#D1805D"/>
<path d="M359.939 182.797C362.255 178.23 360.172 173.019 355.287 171.164C350.402 169.309 344.56 171.51 342.244 176.078C339.928 180.646 342.012 185.856 346.897 187.711C351.782 189.566 357.623 187.365 359.939 182.797Z" fill="#F7C9A9"/>
<path d="M376.049 171.441C377.573 174.904 377.609 178.899 376.03 182.61C378.577 179.345 379.19 174.84 377.722 170.928C376.273 166.985 372.798 163.67 368.507 162.013C364.233 160.289 359.125 160.322 354.851 162.063C350.541 163.737 347.215 167.148 345.785 171.076L345.301 172.403L346.769 172.004C349.371 171.424 352.305 171.343 354.813 172.122C356.057 172.536 357.154 173.2 358.028 174.06C358.882 174.955 359.477 176.033 359.831 177.192C360.61 179.528 360.293 182.014 358.789 183.92C357.301 185.876 354.796 187.217 352.139 188.228C355.056 188.046 358.028 186.936 360.071 184.766C361.056 183.673 361.744 182.295 361.855 180.887C361.985 180.191 361.891 179.496 361.855 178.8C361.705 178.137 361.65 177.439 361.39 176.793C360.981 175.484 360.293 174.193 359.253 173.116C358.194 172.055 356.839 171.242 355.371 170.761C352.379 169.866 349.294 169.967 346.322 170.613L347.308 171.54C348.813 168.043 351.876 165.195 355.667 163.72C359.458 162.213 363.898 162.243 367.689 163.668C371.515 165.077 374.562 167.979 376.049 171.441Z" fill="#1C1C35"/>
</g>
<path d="M367.688 170.894C368.302 172.534 368.338 174.357 368.04 176.228C368.988 174.554 369.453 172.551 369.043 170.596C368.69 168.623 367.484 166.783 365.886 165.392C364.288 163.984 362.281 162.938 360.088 162.425C357.934 161.895 355.443 161.844 353.289 162.872L354.107 164.297C355.761 163.718 357.71 163.801 359.532 164.248C361.354 164.712 363.099 165.557 364.528 166.684C365.977 167.811 367.094 169.254 367.688 170.894Z" fill="#1C1C35"/>
<path d="M351.542 177.886C349.164 177.141 347.602 175.55 348.086 174.307C348.569 173.081 350.892 172.665 353.289 173.395C355.667 174.14 357.229 175.733 356.745 176.976C356.261 178.218 353.939 178.616 351.542 177.886Z" fill="#FFE3C2"/>
<path d="M312.081 209.538C341.101 209.538 364.622 188.956 364.622 163.552C364.622 138.149 358.509 120.467 312.062 126.316C283.338 129.929 259.521 138.149 259.521 163.552C259.521 188.956 283.061 209.538 312.081 209.538Z" fill="#5B97FF"/>
<path d="M294.599 189.023C292.37 188.376 290.178 187.548 288.171 186.421C289.992 187.78 292.072 188.874 294.264 189.802C296.457 190.714 298.76 191.41 301.157 191.873L301.417 190.233C299.131 190.051 296.827 189.652 294.599 189.023Z" fill="#1C1C35"/>
<path d="M264.257 160.403C263.105 152.665 265.001 146.847 267.249 142.904C276.539 133.044 293.241 128.703 312.098 126.333C351.263 121.411 361.741 133.209 364.064 152.267C364.119 159.56 362.577 164.1 362.577 164.1C362.372 155.93 360.199 152.003 360.199 152.003C362.762 164.896 358.211 167.397 358.211 167.397C358.211 167.397 283.73 177.671 282.837 164.181C281.944 150.692 290.789 145.722 290.789 145.722C280.83 149.335 276.221 157.123 276.221 157.123C277.781 149.268 286.515 142.738 286.515 142.738C277.913 144.894 269.961 155.466 269.961 155.466C272.654 146.965 280.681 141.397 280.681 141.397C268.604 146.6 264.257 160.403 264.257 160.403Z" fill="#7CACFF"/>
<path d="M266.859 169.585C287.612 210.848 339.725 198.369 358.175 185.627C349.258 199.878 331.961 209.555 312.062 209.555C288.522 209.555 268.604 196.016 261.916 177.34L266.859 169.585Z" fill="#3E7EEB"/>
<path d="M280.794 200.325C273.381 195.503 267.473 189.023 263.776 181.516L275.889 167.992C275.889 167.992 290.864 181.533 280.794 200.325Z" fill="#1C1C35"/>
<path d="M312.081 209.538C341.101 209.538 364.622 188.956 364.622 163.552C364.622 138.149 358.509 120.467 312.062 126.316C283.338 129.929 259.521 138.149 259.521 163.552C259.521 188.956 283.061 209.538 312.081 209.538Z" stroke="#1C1C35"/>
<path d="M355.036 137.352C355.465 136.672 355.316 136.011 354.906 135.53C354.478 136.011 354.146 136.391 353.848 136.474C353.607 136.558 353.438 136.524 353.029 136.556C352.639 136.539 352.156 136.474 351.636 136.408C351.116 136.358 350.558 136.275 349.908 136.292C350.206 136.805 350.613 137.219 351.097 137.535C351.58 137.85 352.158 138.097 352.863 138.181C353.532 138.297 354.591 138.065 355.036 137.352Z" fill="#1C1C35"/>
<path d="M346.803 131.155C347.157 130.94 347.713 130.773 348.456 130.608C348.011 130.045 347.231 129.747 346.358 129.845C345.929 129.912 345.412 130.062 345.058 130.509C344.687 130.923 344.594 131.52 344.724 131.917C344.947 132.763 345.484 133.261 346.042 133.658C346.618 134.04 347.251 134.304 347.956 134.42C347.677 133.806 347.342 133.325 347.063 132.844C346.784 132.381 346.562 131.917 346.526 131.636C346.526 131.488 346.543 131.468 346.543 131.419C346.543 131.37 346.618 131.254 346.803 131.155Z" fill="#1C1C35"/>
<path d="M345.02 143.402C345.02 143.434 345.02 143.453 345.02 143.485C355.982 144.43 360.998 153.875 361.017 165.392C361.017 177.523 355.443 187.368 343.2 187.368C336.233 187.368 330.028 184.186 325.958 179.197C321.109 184.766 313.212 188.394 304.276 188.394C289.526 188.394 282.818 178.502 282.818 166.322C282.818 154.124 289.526 144.247 304.276 144.247C305.689 144.247 307.08 144.346 308.437 144.529C308.401 144.147 308.382 143.784 308.382 143.402C308.382 134.388 316.577 127.063 326.702 127.063C336.808 127.063 345.02 134.371 345.02 143.402Z" fill="#F7C9A9"/>
<path d="M345.02 143.402C345.02 143.434 345.02 143.453 345.02 143.485C355.982 144.43 360.998 153.875 361.017 165.392C361.017 177.523 355.443 187.368 343.2 187.368C336.233 187.368 330.028 184.186 325.958 179.197C321.109 184.766 313.212 188.394 304.276 188.394C289.526 188.394 282.818 178.502 282.818 166.322C282.818 154.124 289.526 144.247 304.276 144.247C305.689 144.247 307.08 144.346 308.437 144.529C308.401 144.147 308.382 143.784 308.382 143.402C308.382 134.388 316.577 127.063 326.702 127.063C336.808 127.063 345.02 134.371 345.02 143.402Z" stroke="#1C1C35"/>
<mask id="mask8_11_494" style="mask-type:luminance" maskUnits="userSpaceOnUse" x="227" y="102" width="193" height="192">
<path d="M227.435 102.669H419.972V293.722H227.435V102.669Z" fill="white"/>
</mask>
<g mask="url(#mask8_11_494)">
<path d="M267.083 197.161C280.05 191.195 283.598 181.533 275.87 168.193C268.142 154.854 254.652 147.379 241.666 153.362C228.715 159.345 224.482 174.988 232.21 188.327C239.938 201.651 254.116 203.143 267.083 197.161Z" fill="#F7C9A9"/>
<path d="M241.704 153.377C250.491 149.318 259.521 151.456 266.842 157.404C239.716 147.545 231.319 165.89 228.737 178.699C226.989 168.176 231.8 157.952 241.704 153.377Z" fill="#FFE3C2"/>
<path d="M267.083 197.161C280.05 191.195 283.598 181.533 275.87 168.193C268.142 154.854 254.652 147.379 241.666 153.362C228.715 159.345 224.482 174.988 232.21 188.327C239.938 201.651 254.116 203.143 267.083 197.161Z" stroke="#1C1C35"/>
<path d="M266.245 187.522C273.195 182.75 274.349 173.725 268.822 167.369C263.294 161.012 253.177 159.728 246.227 164.501C239.276 169.274 238.123 178.298 243.65 184.655C249.177 191.011 259.295 192.295 266.245 187.522Z" fill="#D1805D"/>
<path d="M267.362 175.851C263.276 168.807 253.557 166.058 245.661 169.703C243.524 170.679 241.743 172.055 240.33 173.646C241.148 169.338 244.14 165.411 248.821 163.256C256.717 159.611 266.433 162.361 270.52 169.404C273.492 174.541 272.657 180.524 268.941 184.815C269.499 181.866 269.035 178.716 267.362 175.851Z" fill="#8E4F43"/>
<path d="M265.54 175.733C268.392 175.733 270.705 173.67 270.705 171.126C270.705 168.582 268.392 166.519 265.54 166.519C262.688 166.519 260.375 168.582 260.375 171.126C260.375 173.67 262.688 175.733 265.54 175.733Z" fill="#1C1C35"/>
<path d="M271.081 187.691C275.959 185.823 278.026 180.606 275.695 176.045C273.364 171.483 267.516 169.298 262.638 171.167C257.759 173.036 255.692 178.252 258.023 182.814C260.354 187.376 266.202 189.56 271.081 187.691Z" fill="#F7C9A9"/>
<path d="M240.253 170.911C238.766 174.84 239.379 179.345 241.926 182.611C240.347 178.899 240.383 174.904 241.926 171.424C243.394 167.944 246.46 165.059 250.286 163.651C254.077 162.243 258.515 162.211 262.306 163.703C266.096 165.177 269.143 168.026 270.667 171.523L271.651 170.596C268.679 169.949 265.596 169.831 262.604 170.744C261.136 171.242 259.779 172.038 258.72 173.099C257.68 174.176 256.994 175.466 256.585 176.776C256.325 177.422 256.286 178.103 256.12 178.783C256.084 179.463 255.99 180.174 256.12 180.87C256.231 182.278 256.919 183.656 257.904 184.749C259.947 186.936 262.939 188.029 265.836 188.211C263.179 187.2 260.671 185.858 259.184 183.903C257.68 182.014 257.365 179.511 258.144 177.175C258.515 176.016 259.112 174.921 259.947 174.043C260.821 173.182 261.916 172.519 263.16 172.105C265.668 171.325 268.604 171.424 271.206 171.987L272.674 172.386L272.19 171.059C270.777 167.131 267.434 163.72 263.124 162.045C258.869 160.304 253.743 160.272 249.468 161.996C245.177 163.653 241.702 166.968 240.253 170.911Z" fill="#1C1C35"/>
<path d="M248.895 170.596C248.506 172.568 248.968 174.554 249.916 176.228C249.601 174.357 249.656 172.519 250.25 170.894C250.864 169.254 251.978 167.811 253.408 166.684C254.838 165.557 256.585 164.729 258.407 164.248C260.245 163.801 262.197 163.718 263.831 164.297L264.65 162.872C262.496 161.844 260.002 161.895 257.848 162.425C255.656 162.956 253.651 163.984 252.053 165.392C250.455 166.783 249.266 168.623 248.895 170.596Z" fill="#1C1C35"/>
</g>
<path d="M266.476 177.962C268.833 177.264 270.326 175.664 269.809 174.388C269.291 173.111 266.961 172.643 264.604 173.34C262.247 174.038 260.754 175.638 261.272 176.914C261.789 178.191 264.12 178.659 266.476 177.962Z" fill="#FFE3C2"/>
<path d="M334.524 154.255C332.796 155.515 331.347 157.089 330.473 158.879C333.576 156.194 337.032 154.056 341.008 153.178C342.976 152.763 345.022 152.531 347.085 152.731C348.124 152.731 349.128 152.98 350.187 153.096C351.227 153.278 352.249 153.56 353.328 153.742C352.399 153.244 351.431 152.748 350.427 152.366C349.388 152.085 348.365 151.636 347.251 151.52C345.077 151.039 342.736 151.173 340.543 151.604C338.331 152.051 336.252 152.995 334.524 154.255Z" fill="#1C1C35"/>
<path d="M313.082 153.178C317.039 154.056 320.498 156.179 323.6 158.879C322.726 157.089 321.277 155.515 319.569 154.255C317.841 152.995 315.759 152.051 313.547 151.604C311.335 151.173 309.015 151.039 306.842 151.52C305.728 151.619 304.705 152.068 303.665 152.366C302.642 152.763 301.694 153.261 300.765 153.742C301.843 153.56 302.866 153.278 303.906 153.096C304.945 152.98 305.968 152.731 307.008 152.731C309.07 152.531 311.131 152.763 313.082 153.178Z" fill="#1C1C35"/>
<path d="M327.93 251.911C347.604 250.303 357.898 241.457 357.898 221.454C357.898 201.469 345.32 185.36 325.682 185.36C306.043 185.36 290.12 201.551 290.12 221.553C290.12 241.556 307.436 253.601 327.93 251.911Z" fill="#F7C9A9"/>
<path d="M324.64 249.825C331.126 249.825 336.382 247.116 336.382 243.775C336.382 240.435 331.126 237.726 324.64 237.726C318.153 237.726 312.897 240.435 312.897 243.775C312.897 247.116 318.153 249.825 324.64 249.825Z" fill="#D1805D"/>
<path d="M353.068 201.585C348.163 202.083 342.81 202.246 342.81 202.246C346.358 201.484 349.128 199.91 351.097 198.404C351.802 199.415 352.454 200.492 353.068 201.585Z" fill="#D1805D"/>
<path d="M328.134 191.725C331.015 191.974 333.465 191.126 333.595 189.851C333.725 188.576 331.516 187.35 328.635 187.084C325.754 186.835 323.304 187.683 323.174 188.958C323.044 190.233 325.253 191.476 328.134 191.725Z" fill="#FFE3C2"/>
<path d="M315.667 203.44C306.842 203.588 300.95 201.302 297.588 199.38C299.092 197.407 300.803 195.602 302.681 193.962C303.071 194.31 303.422 194.771 303.756 195.385C306.933 201.319 315.667 203.44 315.667 203.44Z" fill="#D1805D"/>
<path d="M327.93 251.911C347.604 250.303 357.898 241.457 357.898 221.454C357.898 201.469 345.32 185.36 325.682 185.36C306.043 185.36 290.12 201.551 290.12 221.553C290.12 241.556 307.436 253.601 327.93 251.911Z" stroke="#1C1C35"/>
<path d="M327.972 199.13C329.429 195.53 324.156 190.7 316.198 188.343C308.24 185.985 300.607 186.992 299.15 190.593C297.694 194.193 302.967 199.023 310.925 201.38C318.883 203.738 326.516 202.731 327.972 199.13Z" fill="#F7C9A9"/>
<path d="M298.965 190.381C300.303 186.902 307.939 186.09 316.002 188.576C324.064 191.045 329.528 195.883 328.189 199.363C327.78 200.374 326.851 201.168 325.513 201.716C325.588 201.516 325.682 201.319 325.812 201.104C328.245 197.126 322.19 193.812 314.998 191.592C307.807 189.373 299.93 191.326 303.646 197.193L303.554 197.691C300.007 195.338 298.11 192.586 298.965 190.381Z" fill="#FFE3C2"/>
<path d="M300.32 196.216C302.214 197.957 304.613 199.131 307.176 199.679C305.208 198.105 303.256 196.746 301.696 195.138C300.916 194.342 300.245 193.449 299.93 192.537C299.614 191.624 299.725 190.749 300.32 190.068C301.528 188.66 304.146 188.228 306.488 188.145C308.904 188.078 311.376 188.428 313.754 189.008C316.132 189.57 318.473 190.381 320.627 191.442C322.782 192.502 324.808 193.829 326.238 195.503C326.926 196.332 327.482 197.274 327.501 198.187C327.537 199.082 327.114 199.945 326.221 200.524C324.418 201.718 321.872 202.049 319.345 202.611C321.853 203.257 324.753 203.191 327.186 201.684C327.78 201.286 328.319 200.773 328.69 200.159C329.061 199.546 329.229 198.818 329.21 198.137C329.191 196.729 328.485 195.553 327.706 194.542C326.071 192.537 323.898 191.062 321.612 189.868C319.309 188.692 316.873 187.747 314.31 187.118C311.747 186.505 309.109 186.122 306.397 186.206C305.039 186.256 303.665 186.389 302.327 186.786C301.008 187.183 299.614 187.814 298.666 188.99C297.682 190.15 297.571 191.79 298.072 193.033C298.555 194.293 299.391 195.338 300.32 196.216Z" fill="#1C1C35"/>
<path d="M313.549 199.314C317.171 200.424 320.589 200.061 321.183 198.502C321.778 196.944 319.328 194.774 315.723 193.664C312.101 192.554 308.681 192.917 308.086 194.475C307.492 196.034 309.927 198.204 313.549 199.314Z" fill="#1C1C35"/>
<path d="M346.278 201.362C353.094 199.344 357.442 194.799 355.988 191.21C354.534 187.621 347.829 186.348 341.013 188.366C334.197 190.383 329.849 194.928 331.303 198.517C332.757 202.107 339.462 203.38 346.278 201.362Z" fill="#F7C9A9"/>
<path d="M341.212 188.576C348.141 186.438 354.849 187.533 356.187 191.013C356.95 193 355.797 195.336 353.344 197.375C355.742 191.558 349.946 188.776 341.975 191.444C333.819 194.179 330.697 199.546 334.134 201.402C332.647 200.806 331.571 199.895 331.106 198.719C329.768 195.257 334.283 190.714 341.212 188.576Z" fill="#FFE3C2"/>
<path d="M354.069 195.469C352.825 197.028 351.169 198.352 349.46 199.844C351.802 199.363 353.936 198.187 355.479 196.48C356.259 195.619 356.909 194.591 357.207 193.415C357.506 192.238 357.34 190.862 356.577 189.785C355.833 188.707 354.68 187.962 353.51 187.481C352.322 187 351.075 186.754 349.85 186.62C347.397 186.389 344.947 186.636 342.606 187.183C340.264 187.713 338.033 188.625 335.99 189.785C333.982 190.978 332.071 192.436 330.863 194.458C330.269 195.452 329.86 196.648 330.009 197.873C330.139 199.116 330.88 200.275 331.903 201.02C333.985 202.544 336.659 202.811 338.945 202.248C336.678 201.585 334.505 201.104 332.981 199.928C331.438 198.768 331.4 196.828 332.478 195.237C333.501 193.612 335.229 192.322 337.087 191.294C338.981 190.3 341.044 189.538 343.181 189.057C345.318 188.544 347.527 188.327 349.665 188.51C351.746 188.709 353.92 189.355 354.904 190.714C355.944 192.056 355.332 193.962 354.069 195.469Z" fill="#1C1C35"/>
<path d="M343.889 199.23C340.786 200.192 337.775 199.696 337.181 198.137C336.587 196.579 338.611 194.559 341.713 193.597C344.815 192.635 347.826 193.131 348.42 194.69C349.015 196.248 346.991 198.268 343.889 199.23Z" fill="#1C1C35"/>
<path d="M308.05 182.379C316.957 182.379 324.177 175.939 324.177 167.994C324.177 160.049 316.957 153.609 308.05 153.609C299.143 153.609 291.923 160.049 291.923 167.994C291.923 175.939 299.143 182.379 308.05 182.379Z" fill="#B2C9EA"/>
<path d="M322.839 168.272C325.119 162.651 320.98 156.324 313.594 154.141C306.208 151.957 298.372 154.744 296.092 160.365C293.811 165.987 297.951 172.313 305.337 174.497C312.723 176.68 320.558 173.894 322.839 168.272Z" fill="white"/>
<path d="M308.05 182.379C316.957 182.379 324.177 175.939 324.177 167.994C324.177 160.049 316.957 153.609 308.05 153.609C299.143 153.609 291.923 160.049 291.923 167.994C291.923 175.939 299.143 182.379 308.05 182.379Z" stroke="#1C1C35"/>
<path d="M309.405 184.184L306.154 184.532C307.232 184.615 308.346 184.665 309.48 184.749C310.575 184.665 311.708 184.65 312.803 184.467C315.032 184.152 317.188 183.355 319.121 182.196C321.034 181.003 322.502 179.247 323.467 177.358C324.396 175.419 324.825 173.397 324.676 171.242L322.818 171.343C322.743 173.084 322.353 174.971 321.554 176.611C320.791 178.285 319.602 179.777 318.043 180.953C316.464 182.13 314.567 182.943 312.543 183.523C311.521 183.821 310.464 183.935 309.405 184.184Z" fill="#1C1C35"/>
<mask id="mask9_11_494" style="mask-type:luminance" maskUnits="userSpaceOnUse" x="225" y="102" width="194" height="192">
<path d="M225.727 102.669H418.264V293.722H225.727V102.669Z" fill="white"/>
</mask>
<g mask="url(#mask9_11_494)">
<path d="M319.631 169.962C321.077 164.681 317.63 159.513 311.932 158.421C306.235 157.33 300.441 160.728 298.994 166.009C297.547 171.29 300.994 176.458 306.692 177.549C312.39 178.641 318.184 175.243 319.631 169.962Z" fill="#1C1C35"/>
<path d="M316.763 171.291C317.264 170.164 317.488 168.953 317.283 167.794C316.913 170.098 315.408 172.038 313.42 173.131C311.413 174.208 308.905 174.423 306.788 173.661C304.634 172.966 302.922 171.308 302.253 169.303C301.565 167.298 301.9 164.961 303.387 163.022C301.363 164.514 300.285 167.133 300.86 169.602C301.344 172.088 303.425 174.29 306.119 175.202C308.812 176.147 311.988 175.733 314.236 174.191C315.351 173.412 316.224 172.418 316.763 171.291Z" fill="#5B97FF"/>
<path d="M302.162 167.099C304.41 168.127 306.826 167.893 307.551 166.618C308.294 165.343 307.048 163.486 304.8 162.458C302.552 161.429 300.135 161.663 299.411 162.938C298.667 164.231 299.914 166.088 302.162 167.099Z" fill="white"/>
<path d="M289.137 179.809C285.105 174.988 286.463 170.231 286.463 170.231C286.463 170.231 288.47 176.344 291.553 179.543C294.619 182.724 301.827 184.764 301.827 184.764C301.827 184.764 293.837 185.444 289.137 179.809Z" fill="#D1805D"/>
<path d="M292.239 178.998C289.488 176.428 287.466 173.264 286.463 169.585C286.148 171.474 286.535 173.446 287.334 175.269C288.133 177.091 289.361 178.766 290.92 180.157C292.518 181.516 294.321 182.677 296.309 183.439C297.274 183.886 298.333 184.117 299.336 184.433C300.376 184.648 301.437 184.813 302.477 184.946C301.529 184.482 300.583 184.117 299.654 183.703C298.761 183.222 297.832 182.84 296.978 182.327C295.231 181.365 293.669 180.241 292.239 178.998Z" fill="#1C1C35"/>
</g>
<path d="M343.219 181.73C351.489 181.73 358.194 175.75 358.194 168.374C358.194 160.998 351.489 155.017 343.219 155.017C334.95 155.017 328.245 160.998 328.245 168.374C328.245 175.75 334.95 181.73 343.219 181.73Z" fill="#B2C9EA"/>
<path d="M345.74 174.438C352.602 172.409 356.449 166.53 354.33 161.308C352.211 156.086 344.929 153.497 338.066 155.526C331.204 157.555 327.357 163.435 329.476 168.657C331.595 173.879 338.877 176.467 345.74 174.438Z" fill="white"/>
<path d="M343.219 181.73C351.489 181.73 358.194 175.75 358.194 168.374C358.194 160.998 351.489 155.017 343.219 155.017C334.95 155.017 328.245 160.998 328.245 168.374C328.245 175.75 334.95 181.73 343.219 181.73Z" stroke="#1C1C35"/>
<mask id="mask10_11_494" style="mask-type:luminance" maskUnits="userSpaceOnUse" x="225" y="102" width="194" height="192">
<path d="M225.727 102.669H418.264V293.722H225.727V102.669Z" fill="white"/>
</mask>
<g mask="url(#mask10_11_494)">
<path d="M340.193 183.935C341.232 183.868 342.255 183.819 343.259 183.735L340.248 183.388C339.283 183.156 338.279 183.04 337.35 182.759C335.473 182.211 333.728 181.449 332.279 180.372C330.85 179.262 329.75 177.886 329.045 176.344C328.301 174.82 327.95 173.081 327.856 171.474L325.998 171.373C325.849 173.378 326.26 175.269 327.115 177.074C328.024 178.847 329.379 180.487 331.182 181.597C333.004 182.675 335.009 183.405 337.091 183.686C338.13 183.851 339.17 183.868 340.193 183.935Z" fill="#1C1C35"/>
<path d="M343.259 177.091C348.811 177.091 353.309 173.079 353.309 168.127C353.309 163.175 348.811 159.162 343.259 159.162C337.707 159.162 333.208 163.175 333.208 168.127C333.208 173.079 337.707 177.091 343.259 177.091Z" fill="#1C1C35"/>
<path d="M339.524 172.8C337.702 171.806 336.311 170.083 335.846 167.944C335.622 169.022 335.772 170.181 336.236 171.242C336.72 172.319 337.574 173.262 338.614 173.992C340.732 175.449 343.762 175.767 346.25 174.855C348.758 173.994 350.655 171.92 351.1 169.617C351.601 167.331 350.636 164.911 348.778 163.52C350.152 165.293 350.506 167.496 349.836 169.353C349.206 171.225 347.569 172.734 345.601 173.363C343.613 174.026 341.346 173.762 339.524 172.8Z" fill="#5B97FF"/>
<path d="M349.779 166.055C347.271 167.182 344.689 167.133 344.019 165.939C343.331 164.746 344.818 162.855 347.346 161.745C349.853 160.618 352.436 160.667 353.105 161.861C353.774 163.037 352.287 164.928 349.779 166.055Z" fill="white"/>
</g>
<path d="M329.713 208.544C330.531 208.544 331.181 206.572 331.181 204.135C331.181 201.699 330.531 201.4 329.713 201.4C328.895 201.4 328.245 201.699 328.245 204.135C328.245 206.572 328.895 208.544 329.713 208.544Z" fill="#D1805D"/>
<path d="M327.037 156.509C335.306 156.509 342.011 150.529 342.011 143.153C342.011 135.777 335.306 129.796 327.037 129.796C318.767 129.796 312.062 135.777 312.062 143.153C312.062 150.529 318.767 156.509 327.037 156.509Z" fill="#B2C9EA"/>
<path d="M329.555 149.202C336.417 147.173 340.263 141.293 338.145 136.071C336.026 130.849 328.743 128.26 321.881 130.29C315.018 132.319 311.172 138.198 313.291 143.42C315.41 148.642 322.692 151.231 329.555 149.202Z" fill="white"/>
<mask id="mask11_11_494" style="mask-type:luminance" maskUnits="userSpaceOnUse" x="227" y="102" width="193" height="192">
<path d="M227.435 102.669H419.972V293.722H227.435V102.669Z" fill="white"/>
</mask>
<g mask="url(#mask11_11_494)">
<path d="M329.658 151.587C335.21 151.587 339.708 147.575 339.708 142.622C339.708 137.67 335.21 133.658 329.658 133.658C324.105 133.658 319.607 137.67 319.607 142.622C319.607 147.575 324.105 151.587 329.658 151.587Z" fill="#1C1C35"/>
<path d="M325.922 147.298C324.1 146.304 322.707 144.58 322.242 142.442C322.002 143.503 322.151 144.662 322.635 145.739C323.119 146.817 323.973 147.759 325.013 148.489C327.131 149.947 330.158 150.265 332.647 149.352C335.155 148.491 337.051 146.418 337.496 144.114C337.997 141.828 337.032 139.409 335.174 138.018C336.548 139.791 336.902 141.993 336.233 143.85C335.602 145.722 333.966 147.231 331.997 147.86C330.009 148.524 327.744 148.26 325.922 147.298Z" fill="#5B97FF"/>
<path d="M336.29 141.796C334.192 142.74 331.942 142.541 331.272 141.347C330.603 140.154 331.756 138.43 333.838 137.485C335.937 136.541 338.185 136.741 338.854 137.934C339.542 139.128 338.389 140.851 336.29 141.796Z" fill="white"/>
</g>
<path d="M327.037 156.509C335.306 156.509 342.011 150.529 342.011 143.153C342.011 135.777 335.306 129.796 327.037 129.796C318.767 129.796 312.062 135.777 312.062 143.153C312.062 150.529 318.767 156.509 327.037 156.509Z" stroke="#1C1C35"/>
<mask id="mask12_11_494" style="mask-type:luminance" maskUnits="userSpaceOnUse" x="235" y="111" width="180" height="178">
<path d="M235.19 111.194H414.313V288.936H235.19V111.194Z" fill="white"/>
</mask>
<g mask="url(#mask12_11_494)">
<path d="M313.644 228.532C303.566 225.418 303.015 218.372 303.015 218.372C303.015 218.372 300.232 222.442 303.671 225.927C307.092 229.442 313.644 228.532 313.644 228.532Z" fill="#D1805D"/>
<path d="M335.284 220.424L335.942 220.563C338.483 221.135 340.037 223.429 339.433 225.696C338.931 227.469 337.256 228.702 335.338 228.887C334.265 228.995 333.193 229.135 332.104 229.197L330.445 229.243L329.615 229.259L328.768 229.227L327.076 229.165C326.505 229.119 325.934 229.057 325.363 228.995L324.498 228.903C324.205 228.873 323.927 228.811 323.634 228.765C323.063 228.674 322.477 228.58 321.906 228.456C319.606 227.963 317.327 227.224 315.097 226.237C314.819 226.113 314.544 225.989 314.266 225.852L313.438 225.434C312.885 225.173 312.347 224.849 311.794 224.526C311.516 224.356 311.261 224.17 310.984 224L310.585 223.739L310.187 223.445L309.772 223.154C309.633 223.046 309.479 222.922 309.34 222.814C309.186 222.69 309.063 222.598 308.89 222.445C308.718 222.291 308.615 222.213 308.303 221.873C305.487 218.482 306.279 213.701 310.066 211.189C313.852 208.677 318.796 209.879 320.352 211.065C321.129 211.666 321.924 212.855 321.941 212.9L322.027 213.054L322.114 213.208L322.217 213.364C322.286 213.472 322.356 213.579 322.443 213.687C322.615 213.903 322.77 214.135 322.978 214.35L323.271 214.69C323.374 214.798 323.498 214.906 323.601 215.013C324.483 215.876 325.535 216.693 326.729 217.418C327.022 217.588 327.333 217.757 327.644 217.927C327.799 218.019 327.958 218.111 328.112 218.189L328.614 218.404C328.943 218.542 329.27 218.714 329.615 218.852L330.687 219.237L331.222 219.437L331.775 219.591L332.917 219.914C333.678 220.1 334.489 220.238 335.284 220.424Z" fill="white"/>
<path d="M339.502 224.122C338.828 223.335 337.498 222.333 334.905 222.025C330.497 221.502 323.531 219.251 320.143 214.626C316.738 209.984 311.382 210.494 307.009 215.057C307.529 213.561 308.547 212.189 310.068 211.187C313.854 208.674 318.796 209.879 320.352 211.065C321.129 211.666 321.923 212.852 321.941 212.898L322.029 213.054L322.116 213.208L322.219 213.362C322.288 213.469 322.356 213.577 322.443 213.685C322.615 213.901 322.77 214.132 322.978 214.348L323.274 214.688C323.377 214.795 323.498 214.903 323.601 215.011C324.483 215.874 325.537 216.691 326.731 217.416C327.024 217.585 327.335 217.755 327.646 217.925C327.801 218.017 327.958 218.109 328.112 218.187L328.614 218.402C328.943 218.54 329.272 218.712 329.617 218.85L330.687 219.235L331.224 219.437L331.777 219.591L332.917 219.914C333.678 220.1 334.491 220.238 335.286 220.423L335.942 220.561C337.895 220.993 339.26 222.442 339.502 224.122Z" fill="#B2C9EA"/>
<path d="M335.284 220.424L335.942 220.563C338.483 221.135 340.037 223.429 339.433 225.696C338.931 227.469 337.256 228.702 335.338 228.887C334.265 228.995 333.193 229.135 332.104 229.197L330.445 229.243L329.615 229.259L328.768 229.227L327.076 229.165C326.505 229.119 325.934 229.057 325.363 228.995L324.498 228.903C324.205 228.873 323.927 228.811 323.634 228.765C323.063 228.674 322.477 228.58 321.906 228.456C319.606 227.963 317.327 227.224 315.097 226.237C314.819 226.113 314.544 225.989 314.266 225.852L313.438 225.434C312.885 225.173 312.347 224.849 311.794 224.526C311.516 224.356 311.261 224.17 310.984 224L310.585 223.739L310.187 223.445L309.772 223.154C309.633 223.046 309.479 222.922 309.34 222.814C309.186 222.69 309.063 222.598 308.89 222.445C308.718 222.291 308.615 222.213 308.303 221.873C305.487 218.482 306.279 213.701 310.066 211.189C313.852 208.677 318.796 209.879 320.352 211.065C321.129 211.666 321.924 212.855 321.941 212.9L322.027 213.054L322.114 213.208L322.217 213.364C322.286 213.472 322.356 213.579 322.443 213.687C322.615 213.903 322.77 214.135 322.978 214.35L323.271 214.69C323.374 214.798 323.498 214.906 323.601 215.013C324.483 215.876 325.535 216.693 326.729 217.418C327.022 217.588 327.333 217.757 327.644 217.927C327.799 218.019 327.958 218.111 328.112 218.189L328.614 218.404C328.943 218.542 329.27 218.714 329.615 218.852L330.687 219.237L331.222 219.437L331.775 219.591L332.917 219.914C333.678 220.1 334.489 220.238 335.284 220.424Z" stroke="#1C1C35" stroke-width="0.930328"/>
<path d="M308.908 212.097C308.908 212.097 318.07 225.033 339.538 224.647" stroke="#1C1C35" stroke-width="0.930328"/>
<path d="M315.184 217.695C315.719 216.509 316.151 215.273 316.1 213.855C314.906 214.795 314.197 215.92 313.61 217.092C313.057 218.278 312.625 219.515 312.694 220.933C313.888 219.992 314.597 218.868 315.184 217.695Z" fill="#1C1C35"/>
<path d="M307.3 224.248C305.538 222.552 304.121 220.669 303.015 218.372C302.791 219.636 303.1 220.947 303.653 222.119C304.224 223.291 305.072 224.388 306.091 225.296C307.128 226.191 308.303 226.962 309.6 227.485C310.878 228.04 312.26 228.38 313.643 228.534C313.057 228.164 312.47 227.855 311.899 227.531C311.364 227.176 310.775 226.882 310.256 226.513C309.183 225.82 308.216 225.049 307.3 224.248Z" fill="#1C1C35"/>
</g>
<path d="M308.274 205.213C306.825 205.775 305.468 206.672 304.633 207.849C306.007 207.203 307.362 206.771 308.755 206.456C310.149 206.174 311.562 206.026 312.974 206.009C315.797 206.009 318.601 206.473 321.277 207.849C320.442 206.672 319.104 205.775 317.636 205.213C316.168 204.633 314.553 204.384 312.955 204.367C311.357 204.367 309.742 204.633 308.274 205.213Z" fill="#1C1C35"/>
<path d="M289.23 138.43C288.859 138.297 288.486 137.868 288.021 137.32C287.651 137.917 287.557 138.662 288.077 139.357C288.635 140.119 289.805 140.302 290.548 140.154C291.347 140.038 291.978 139.724 292.536 139.342C293.095 138.977 293.557 138.494 293.891 137.932C292.479 138.065 291.292 138.462 290.308 138.546C289.807 138.546 289.528 138.578 289.23 138.43Z" fill="#1C1C35"/>
<path d="M297.571 130.309C296.587 130.26 295.732 130.592 295.213 131.221C296.067 131.305 296.736 131.436 297.22 131.685C297.444 131.769 297.59 131.917 297.627 132.001C297.663 132.084 297.704 132.149 297.684 132.348C297.648 132.713 297.386 133.276 297.071 133.823C296.755 134.371 296.363 134.948 296.048 135.629C296.828 135.414 297.516 135.049 298.13 134.568C298.724 134.07 299.299 133.458 299.485 132.514C299.615 132.067 299.468 131.421 299.039 130.99C298.649 130.509 298.055 130.376 297.571 130.309Z" fill="#1C1C35"/>
<mask id="mask13_11_494" style="mask-type:luminance" maskUnits="userSpaceOnUse" x="225" y="106" width="194" height="193">
<path d="M225.63 106.962H418.167V298.015H225.63V106.962Z" fill="white"/>
</mask>
<g mask="url(#mask13_11_494)">
<mask id="mask14_11_494" style="mask-type:luminance" maskUnits="userSpaceOnUse" x="225" y="106" width="194" height="193">
<path d="M225.63 106.962H418.167V298.015H225.63V106.962Z" fill="white"/>
</mask>
<g mask="url(#mask14_11_494)">
<path d="M357.929 119.919C358.004 119.951 358.098 119.969 358.172 119.986C354.177 135.86 345.872 136.309 345.872 136.309L351.111 139.772C357.019 135.611 359.898 124.247 360.772 120.087C362.593 119.756 364.172 118.595 364.822 116.92C365.787 114.385 364.283 111.633 361.46 110.772C358.618 109.911 355.532 111.253 354.567 113.771C353.602 116.306 355.106 119.058 357.929 119.919Z" fill="#7CACFF"/>
<path d="M362.859 113.99C363.176 113.207 362.367 112.256 361.053 111.868C359.739 111.479 358.415 111.799 358.097 112.582C357.78 113.365 358.589 114.316 359.903 114.705C361.217 115.093 362.541 114.774 362.859 113.99Z" fill="#C5DAFF"/>
<path d="M350.221 133.261C348.996 134.437 347.674 135.564 345.872 136.309C347.915 136.524 349.941 135.564 351.484 134.405C352.988 133.179 354.271 131.719 355.236 130.161C355.756 129.399 356.163 128.587 356.591 127.776C356.945 126.947 357.335 126.119 357.65 125.29C358.281 123.633 358.711 121.909 359.082 120.185V120.168L359.248 119.391L358.432 119.192C356.314 118.694 354.863 116.639 355.272 114.718C355.587 112.762 357.689 111.255 359.881 111.354C362.074 111.403 364.042 113.061 364.172 115.016C364.396 116.972 362.798 118.91 360.625 119.275L360.567 119.29L359.973 119.406L359.826 119.954C359.361 121.71 358.858 123.451 358.338 125.191C357.838 126.932 357.186 128.622 356.536 130.311C355.847 131.986 355.106 133.641 354.177 135.199C353.229 136.758 352.264 138.217 351.075 139.791C353.082 139.061 354.567 137.535 355.681 135.961C356.796 134.353 357.705 132.664 358.468 130.94C359.267 129.216 359.843 127.428 360.401 125.655C360.94 123.865 361.347 122.057 361.645 120.235L360.921 120.898L360.995 120.881C362.5 120.615 363.876 119.821 364.786 118.728C365.715 117.618 366.141 116.225 366.011 114.866C365.826 112.099 363.039 109.746 359.936 109.697C356.834 109.532 353.862 111.685 353.433 114.435C352.875 117.169 354.902 120.07 357.912 120.782L357.26 119.805V119.821C356.962 120.632 356.704 121.446 356.444 122.257L355.551 124.659C355.236 125.456 354.865 126.218 354.531 126.997C354.103 127.727 353.787 128.521 353.323 129.234C352.488 130.708 351.446 132.067 350.221 133.261Z" fill="#1C1C35"/>
</g>
<mask id="mask15_11_494" style="mask-type:luminance" maskUnits="userSpaceOnUse" x="225" y="106" width="194" height="193">
<path d="M225.63 106.962H418.167V298.015H225.63V106.962Z" fill="white"/>
</mask>
<g mask="url(#mask15_11_494)">
<path d="M279.23 118.678C279.136 118.711 279.044 118.73 278.95 118.762C284.69 137.058 294.409 137.123 294.409 137.123L288.539 141.448C281.386 136.925 277.242 123.833 275.942 119.026C273.805 118.745 271.872 117.485 270.999 115.564C269.68 112.681 271.261 109.381 274.493 108.222C277.725 107.046 281.425 108.454 282.724 111.337C284.043 114.22 282.462 117.519 279.23 118.678Z" fill="#7CACFF"/>
<path d="M276.517 112.679C278.041 112.116 278.97 110.972 278.58 110.094C278.19 109.216 276.611 108.967 275.088 109.514C273.564 110.077 272.635 111.221 273.025 112.099C273.415 112.977 274.975 113.226 276.517 112.679Z" fill="#C5DAFF"/>
<path d="M287.853 135.085C289.692 136.378 292.053 137.404 294.411 137.123C292.257 136.427 290.584 135.219 289.042 133.909C287.518 132.582 286.178 131.056 285.083 129.367C284.488 128.57 284.062 127.662 283.504 126.816C283.059 125.921 282.558 125.043 282.149 124.131L280.96 121.364C280.606 120.437 280.252 119.49 279.863 118.563L279.268 119.574C280.902 119.061 282.354 118 283.189 116.624C284.043 115.248 284.322 113.608 283.932 112.084C283.263 108.969 279.716 106.681 276.185 107.029C274.438 107.177 272.784 107.907 271.576 109.051C270.368 110.178 269.644 111.719 269.608 113.277C269.552 114.836 270.147 116.407 271.28 117.601C272.414 118.812 274.029 119.623 275.757 119.855H275.795L275.032 119.226C275.533 121.33 276.127 123.418 276.89 125.458C277.653 127.497 278.452 129.534 279.492 131.49C280.515 133.445 281.665 135.367 283.039 137.172C284.414 138.945 286.216 140.637 288.539 141.448C286.979 139.759 285.713 138.102 284.488 136.328C283.28 134.555 282.26 132.664 281.367 130.743C280.493 128.804 279.639 126.866 278.914 124.861C278.19 122.873 277.504 120.851 276.854 118.829L276.686 118.299L276.091 118.198H276.055C274.772 118.032 273.564 117.421 272.729 116.525C271.894 115.647 271.449 114.469 271.485 113.31C271.504 110.94 273.733 108.836 276.37 108.654C278.989 108.387 281.629 110.094 282.13 112.415C282.76 114.701 281.181 117.253 278.654 117.983L277.839 118.215L278.043 118.977C278.601 120.95 279.213 122.92 280.086 124.827C280.515 125.788 281.015 126.716 281.48 127.66C282.038 128.572 282.575 129.502 283.225 130.363C284.45 132.136 286.031 133.744 287.853 135.085Z" fill="#1C1C35"/>
</g>
</g>
</g>
<mask id="mask16_11_494" style="mask-type:luminance" maskUnits="userSpaceOnUse" x="234" y="93" width="208" height="203">
<path d="M253.536 93.1886L441.776 103.419L422.992 295.767L234.752 285.537L253.536 93.1886Z" fill="white"/>
</mask>
<g mask="url(#mask16_11_494)">
<path d="M395.784 272.022C404.349 272.458 412.055 266.29 412.998 258.245C413.942 250.201 407.764 243.327 399.2 242.891C390.635 242.456 382.929 248.623 381.985 256.668C381.042 264.712 387.22 271.586 395.784 272.022Z" fill="#B2C9EA"/>
<path d="M411.955 258.592C414.789 253.079 411.366 246.494 404.31 243.883C397.253 241.272 389.236 243.624 386.401 249.137C383.567 254.65 386.99 261.236 394.046 263.847C401.102 266.458 409.12 264.105 411.955 258.592Z" fill="white"/>
<path d="M395.784 272.022C404.349 272.458 412.055 266.29 412.998 258.245C413.942 250.201 407.764 243.327 399.2 242.891C390.635 242.456 382.929 248.623 381.985 256.668C381.042 264.712 387.22 271.586 395.784 272.022Z" stroke="#1C1C35"/>
<mask id="mask17_11_494" style="mask-type:luminance" maskUnits="userSpaceOnUse" x="229" y="93" width="208" height="203">
<path d="M252.439 93.3173L436.936 102.727L414.408 295.896L229.912 286.485L252.439 93.3173Z" fill="white"/>
</mask>
<g mask="url(#mask17_11_494)">
<path d="M405.352 260.376C407.44 255.159 404.772 249.758 399.395 248.316C394.017 246.873 387.962 249.935 385.874 255.152C383.785 260.369 386.453 265.769 391.831 267.212C397.209 268.654 403.263 265.593 405.352 260.376Z" fill="#1C1C35"/>
<path d="M402.323 261.444C402.955 260.32 403.335 259.099 403.3 257.909C402.63 260.236 400.93 262.14 398.886 263.159C396.827 264.161 394.409 264.262 392.498 263.387C390.543 262.578 389.142 260.811 388.782 258.74C388.422 256.668 389.065 254.287 390.728 252.4C388.595 253.824 387.207 256.438 387.414 258.978C387.532 261.53 389.21 263.87 391.648 264.924C394.082 266.012 397.164 265.74 399.517 264.277C400.685 263.536 401.654 262.565 402.323 261.444Z" fill="#5B97FF"/>
<path d="M388.464 256.503C390.469 257.657 392.81 257.532 393.68 256.266C394.549 255 393.639 253.032 391.631 251.895C389.626 250.741 387.285 250.866 386.415 252.132C385.525 253.415 386.456 255.367 388.464 256.503Z" fill="white"/>
</g>
</g>
</g>
</g>
<mask id="mask18_11_494" style="mask-type:luminance" maskUnits="userSpaceOnUse" x="0" y="0" width="645" height="483">
<path d="M0 0H645V483H0V0Z" fill="white"/>
</mask>
<g mask="url(#mask18_11_494)">
<path d="M563.868 356.387C564.69 353.504 562.84 350.66 559.734 350.039C556.628 349.418 553.444 351.254 552.622 354.138C551.8 357.022 553.651 359.865 556.757 360.486C559.863 361.107 563.047 359.271 563.868 356.387Z" fill="#4664D7"/>
<path d="M586.126 356.392C586.948 353.508 585.097 350.665 581.991 350.043C578.885 349.422 575.701 351.258 574.879 354.142C574.057 357.026 575.908 359.869 579.014 360.49C582.12 361.112 585.304 359.275 586.126 356.392Z" fill="#4664D7"/>
<path d="M606.922 358.948C609.232 356.89 609.235 353.554 606.927 351.492C604.619 349.431 600.879 349.429 598.568 351.487C596.257 353.545 596.255 356.881 598.563 358.942C600.871 361.004 604.611 361.006 606.922 358.948Z" fill="#4664D7"/>
<path d="M48.6284 205.652C51.5682 204.599 52.8773 201.515 51.553 198.764C50.2288 196.012 46.7727 194.636 43.8329 195.689C40.8931 196.742 39.584 199.825 40.9082 202.577C42.2325 205.328 45.6886 206.705 48.6284 205.652Z" fill="#4664D7"/>
<path d="M70.8833 205.652C73.8231 204.599 75.1322 201.515 73.8079 198.764C72.4837 196.012 69.0276 194.636 66.0878 195.689C63.148 196.742 61.8389 199.825 63.1631 202.577C64.4874 205.328 67.9435 206.705 70.8833 205.652Z" fill="#4664D7"/>
<path d="M94.9023 204.388C97.213 202.33 97.2153 198.994 94.9075 196.932C92.5997 194.871 88.8593 194.869 86.5487 196.927C84.238 198.985 84.2357 202.321 86.5435 204.382C88.8513 206.444 92.5917 206.446 94.9023 204.388Z" fill="#4664D7"/>
<path d="M625.742 155.322C625.742 151.349 629.359 148.12 633.806 148.12C638.254 148.12 641.871 151.349 641.871 155.322C641.871 159.296 638.254 162.524 633.806 162.524C629.359 162.524 625.742 159.296 625.742 155.322ZM623.34 155.322C623.34 160.478 628.033 164.671 633.806 164.671C639.58 164.671 644.273 160.474 644.273 155.322C644.273 150.166 639.58 145.973 633.806 145.973C628.033 145.973 623.34 150.166 623.34 155.322Z" fill="#FC93A4"/>
<path d="M190.126 9.34873C190.126 5.37525 193.743 2.14667 198.191 2.14667C202.638 2.14667 206.256 5.37525 206.256 9.34873C206.256 13.3222 202.638 16.5508 198.191 16.5508C193.743 16.5508 190.126 13.3222 190.126 9.34873ZM187.724 9.34873C187.724 14.505 192.417 18.6975 198.191 18.6975C203.964 18.6975 208.657 14.505 208.657 9.34873C208.657 4.19244 203.964 0 198.191 0C192.417 0 187.724 4.19244 187.724 9.34873Z" fill="#4664D7"/>
<path d="M1.15522 317.923C1.15522 316.007 2.9025 314.446 5.04929 314.446C7.19608 314.446 8.94336 316.007 8.94336 317.923C8.94336 319.84 7.19608 321.401 5.04929 321.401C2.9025 321.401 1.15522 319.84 1.15522 317.923ZM0 317.923C0 320.411 2.26231 322.434 5.04929 322.434C7.83627 322.434 10.0986 320.411 10.0986 317.923C10.0986 315.435 7.83627 313.413 5.04929 313.413C2.26231 313.413 0 315.435 0 317.923Z" fill="#FC93A4"/>
<path d="M552.293 268.554C552.293 266.637 554.041 265.077 556.187 265.077C558.334 265.077 560.081 266.637 560.081 268.554C560.081 270.471 558.334 272.032 556.187 272.032C554.041 272.032 552.293 270.471 552.293 268.554ZM551.138 268.554C551.138 271.042 553.4 273.065 556.187 273.065C558.974 273.065 561.237 271.038 561.237 268.55C561.237 266.062 558.974 264.04 556.187 264.04C553.4 264.04 551.138 266.066 551.138 268.554Z" fill="#4664D7"/>
</g>
</g>
</g>
<defs>
<filter id="filter0_f_11_494" x="90.5279" y="14.4366" width="463.256" height="463.967" filterUnits="userSpaceOnUse" color-interpolation-filters="sRGB">
<feFlood flood-opacity="0" result="BackgroundImageFix"/>
<feBlend mode="normal" in="SourceGraphic" in2="BackgroundImageFix" result="shape"/>
<feGaussianBlur stdDeviation="6" result="effect1_foregroundBlur_11_494"/>
</filter>
<filter id="filter1_f_11_494" x="148.749" y="49.7523" width="345.38" height="394.263" filterUnits="userSpaceOnUse" color-interpolation-filters="sRGB">
<feFlood flood-opacity="0" result="BackgroundImageFix"/>
<feBlend mode="normal" in="SourceGraphic" in2="BackgroundImageFix" result="shape"/>
<feGaussianBlur stdDeviation="6" result="effect1_foregroundBlur_11_494"/>
</filter>
<filter id="filter2_f_11_494" x="184.294" y="80.9221" width="275.117" height="216.905" filterUnits="userSpaceOnUse" color-interpolation-filters="sRGB">
<feFlood flood-opacity="0" result="BackgroundImageFix"/>
<feBlend mode="normal" in="SourceGraphic" in2="BackgroundImageFix" result="shape"/>
<feGaussianBlur stdDeviation="2" result="effect1_foregroundBlur_11_494"/>
</filter>
<linearGradient id="paint0_linear_11_494" x1="269.238" y1="29.8423" x2="391.235" y2="454.663" gradientUnits="userSpaceOnUse">
<stop stop-color="white"/>
<stop offset="0.19" stop-color="#8F8F90" stop-opacity="0.5"/>
<stop offset="0.38" stop-color="#1F1F20" stop-opacity="0"/>
<stop offset="0.69" stop-color="#888A90" stop-opacity="0.2"/>
<stop offset="1" stop-color="#F0F5FF" stop-opacity="0.4"/>
</linearGradient>
<linearGradient id="paint1_linear_11_494" x1="270.418" y1="60.1352" x2="390.131" y2="330.021" gradientUnits="userSpaceOnUse">
<stop stop-color="#CF8170"/>
<stop offset="0.12" stop-color="#BE80A7"/>
<stop offset="0.24" stop-color="#AE7EDD"/>
<stop offset="0.37" stop-color="#9571E4"/>
<stop offset="0.49" stop-color="#7B64EC"/>
<stop offset="0.54" stop-color="#7167ED"/>
<stop offset="0.6" stop-color="#666AEE"/>
<stop offset="0.8" stop-color="#596EEF"/>
<stop offset="1" stop-color="#4C72F0"/>
</linearGradient>
<linearGradient id="paint2_linear_11_494" x1="171.476" y1="69.8525" x2="440.964" y2="441.619" gradientUnits="userSpaceOnUse">
<stop stop-color="white"/>
<stop offset="0.19" stop-color="#8F8F90" stop-opacity="0.5"/>
<stop offset="0.38" stop-color="#1F1F20" stop-opacity="0"/>
<stop offset="0.69" stop-color="#888A90" stop-opacity="0.2"/>
<stop offset="1" stop-color="#F0F5FF" stop-opacity="0.4"/>
</linearGradient>
<linearGradient id="paint3_linear_11_494" x1="209.098" y1="78.0249" x2="398.297" y2="338.626" gradientUnits="userSpaceOnUse">
<stop stop-color="#CF8170"/>
<stop offset="0.12" stop-color="#BE80A7"/>
<stop offset="0.24" stop-color="#AE7EDD"/>
<stop offset="0.37" stop-color="#9571E4"/>
<stop offset="0.49" stop-color="#7B64EC"/>
<stop offset="0.54" stop-color="#7167ED"/>
<stop offset="0.6" stop-color="#666AEE"/>
<stop offset="0.67" stop-color="#596EEF"/>
<stop offset="0.74" stop-color="#4C72F0"/>
<stop offset="0.87" stop-color="#3B86E5"/>
<stop offset="1" stop-color="#2A9BDA"/>
</linearGradient>
<linearGradient id="paint4_linear_11_494" x1="280.606" y1="284.416" x2="337.329" y2="222.308" gradientUnits="userSpaceOnUse">
<stop offset="0.15" stop-color="#E4674C"/>
<stop offset="0.57" stop-color="#F2A76C"/>
<stop offset="1" stop-color="#FFE68C"/>
</linearGradient>
<clipPath id="clip0_11_494">
<rect width="645" height="483" fill="white"/>
</clipPath>
</defs>
</svg>
